<svg xmlns="http://www.w3.org/2000/svg" viewBox="0 0 150 150"><defs><style>.cls-1{fill:#fff;}.cls-2{fill:none;}</style></defs><g id="Capa_2" data-name="Capa 2"><g id="Capa_1-2" data-name="Capa 1"><path class="cls-1" d="M122.79,99.18H45.46A2.8,2.8,0,0,1,42.73,97L25.82,24.9a2.8,2.8,0,0,0-2.73-2.17H4.7C.45,19,3,14.26,6.74,14.26H29.81a2.8,2.8,0,0,1,2.73,2.16L49.47,88.56a2.81,2.81,0,0,0,2.74,2.17h64.4a2.8,2.8,0,0,0,2.67-2l15.41-47.73A2.81,2.81,0,0,0,132,37.38H55.93a4.25,4.25,0,0,1,0-8.49h87.72a2.81,2.81,0,0,1,2.67,3.67L125.46,97.24A2.8,2.8,0,0,1,122.79,99.18Z"/><path class="cls-1" d="M61.58,135.74c-11.19,0-19.55-12.08-12.76-23.91a11,11,0,0,1,4.06-4.06c11.83-6.79,23.91,1.58,23.91,12.76A15.22,15.22,0,0,1,61.58,135.74Zm6.06-19.14c-7.32-7.23-16.49,1-11.26,8.52a2.44,2.44,0,0,0,.6.6c5.45,3.83,11.32,0,11.33-5.17v-2.39A2.21,2.21,0,0,0,67.64,116.6Z"/><path class="cls-1" d="M106.28,135.74c-11.19,0-19.55-12.08-12.76-23.91a11,11,0,0,1,4.06-4.06c11.83-6.79,23.91,1.58,23.91,12.76A15.22,15.22,0,0,1,106.28,135.74Zm6.06-19.15c-7.33-7.22-16.49,1-11.25,8.54a2.63,2.63,0,0,0,.6.6c5.46,3.82,11.32,0,11.32-5.19v-2.38A2.23,2.23,0,0,0,112.34,116.59Z"/><rect class="cls-2" width="150" height="150"/></g></g></svg>