<?xml version="1.0" encoding="utf-8"?>
<!-- Generator: Adobe Illustrator 21.0.0, SVG Export Plug-In . SVG Version: 6.00 Build 0)  -->
<svg version="1.1" id="Capa_1" xmlns="http://www.w3.org/2000/svg" xmlns:xlink="http://www.w3.org/1999/xlink" x="0px" y="0px"
	 viewBox="0 0 24 24" style="enable-background:new 0 0 24 24;" xml:space="preserve">
<style type="text/css">
	.st0{fill:#EF4F25;}
</style>
<path class="st0" d="M19.8,3.8h-15C3,3.8,1.6,5.2,1.6,7v9.9c0,1.8,1.5,3.3,3.3,3.3h15c1.8,0,3.3-1.5,3.3-3.3V7
	C23.1,5.2,21.7,3.8,19.8,3.8z M21.4,7v9H3.3V7c0-0.2,0-0.3,0.1-0.5l9.2,7.2l0,0l0,0l8.9-6.9C21.4,6.9,21.4,7,21.4,7z M19.9,5.5
	l-7.4,5.8L5.2,5.5L19.9,5.5C19.9,5.5,19.9,5.5,19.9,5.5z"/>
</svg>
