<svg xmlns="http://www.w3.org/2000/svg" viewBox="0 0 150 150"><defs><style>.cls-1{fill:#9cc33b;}.cls-2{fill:none;}</style></defs><g id="Capa_2" data-name="Capa 2"><g id="Capa_1-2" data-name="Capa 1"><path class="cls-1" d="M147.5,25.28v-.43a4,4,0,0,0-.15-.45,2.32,2.32,0,0,0-.16-.44l-.22-.4-.29-.44V23l-.18-.17-.36-.37-.36-.3-.39-.26a2.32,2.32,0,0,0-.41-.22l-.43-.18-.45-.14-.44-.1H6.38l-.45.1-.45.14L5,21.65a2.24,2.24,0,0,0-.4.22l-.34.26-.35.3-.37.37-.13.2v.15l-.29.44-.21.4a3.38,3.38,0,0,0-.18.44c0,.15-.09.3-.13.45a.72.72,0,0,1-.1.43v99.43a.72.72,0,0,0,.1.43c0,.15.08.31.13.46a3.25,3.25,0,0,0,.18.43l.21.41.29.44V127l.16.14.47.49.31.24a6.32,6.32,0,0,0,.56.33l.32.17a3.75,3.75,0,0,0,.71.25h.24a3.8,3.8,0,0,0,1,.12H142.77a3.75,3.75,0,0,0,1-.12H144a3.61,3.61,0,0,0,.72-.25l.31-.15.56-.35.31-.24.47-.49.16-.14v-.15l.3-.44.2-.41a3.25,3.25,0,0,0,.18-.43,1.72,1.72,0,0,1,.14-.46V25.81ZM12,36.09,60.43,75,12,113.89ZM78.54,71.27h0l-3.63,2.89L71.3,71.27h0L20.86,30.86H129Zm-10.33,10,3.65,2.92a4.88,4.88,0,0,0,6.07,0l3.67-2.92,47.4,37.9H20.87ZM89.35,75l48.53-38.91v77.8Z"/><rect class="cls-2" width="150" height="150"/></g></g></svg>