<svg xmlns="http://www.w3.org/2000/svg" viewBox="0 0 150 150"><defs><style>.cls-1{fill:#9cc33b;}.cls-2{fill:none;}</style></defs><g id="Capa_2" data-name="Capa 2"><g id="Capa_1-2" data-name="Capa 1"><path class="cls-1" d="M84.71,147.5l.12-62.64h21.62a3.85,3.85,0,0,0,3.81-3.39l2.41-20.2A3.86,3.86,0,0,0,109.29,57H84.71V40.09c0-7.66,2.13-12.88,13.11-12.88H108a3.83,3.83,0,0,0,3.83-3.81V6.34A3.85,3.85,0,0,0,108,2.5H91.42c-20.2,0-34,12.33-34,35V57H41.15a3.84,3.84,0,0,0-3.84,3.84h0L37.38,81a3.85,3.85,0,0,0,3.84,3.83H57.49l-.1,62.65Z"/><rect class="cls-2" width="150" height="150"/></g></g></svg>