<?xml version="1.0" encoding="utf-8"?>
<!-- Generator: Adobe Illustrator 16.0.3, SVG Export Plug-In . SVG Version: 6.00 Build 0)  -->
<!DOCTYPE svg PUBLIC "-//W3C//DTD SVG 1.1//EN" "http://www.w3.org/Graphics/SVG/1.1/DTD/svg11.dtd">
<svg version="1.1" id="Capa_1" xmlns="http://www.w3.org/2000/svg" xmlns:xlink="http://www.w3.org/1999/xlink" x="0px" y="0px"
	 width="24px" height="24px" viewBox="0 0 24 24" enable-background="new 0 0 24 24" xml:space="preserve">
<path id="XMLID_1695_" fill="#7d9c2f" d="M12.001,23.344L12.001,23.344C5.737,23.344,0.658,18.267,0.658,12l0,0
	c0-6.264,5.079-11.343,11.343-11.343l0,0c6.264,0,11.342,5.079,11.342,11.343l0,0C23.344,18.267,18.266,23.344,12.001,23.344z"/>
<path id="XMLID_1694_" fill="#FFFFFF" d="M10.272,18.857h2.762v-6.916h1.927l0.205-2.314h-2.132c0,0,0-0.864,0-1.319
	c0-0.545,0.109-0.761,0.638-0.761c0.424,0,1.494,0,1.494,0V5.144c0,0-1.576,0-1.912,0c-2.054,0-2.981,0.905-2.981,2.637
	c0,1.51,0,1.847,0,1.847H8.837v2.344h1.436V18.857z"/>
</svg>
