<svg xmlns="http://www.w3.org/2000/svg" viewBox="0 0 150 150"><defs><style>.cls-1{fill:#9cc33b;}.cls-2{fill:none;}</style></defs><g id="Capa_2" data-name="Capa 2"><g id="Capa_1-2" data-name="Capa 1"><path class="cls-1" d="M142.13,20.44H43.75a5.36,5.36,0,0,0-5.37,5.37V46.39H25.67a5.37,5.37,0,1,0,0,10.74H61.83a5.37,5.37,0,1,0,0-10.74H49.12V31.18h87.64v87.64H49.12V101.4H61.83a5.37,5.37,0,1,0,0-10.74H25.67a5.37,5.37,0,1,0,0,10.74H38.38v22.79a5.36,5.36,0,0,0,5.37,5.37h98.38a5.36,5.36,0,0,0,5.37-5.37V25.81A5.36,5.36,0,0,0,142.13,20.44Z"/><path class="cls-1" d="M85,73.9a5.37,5.37,0,0,0-5.37-5.37H7.87a5.37,5.37,0,0,0,0,10.74H79.63A5.38,5.38,0,0,0,85,73.9Z"/><rect class="cls-2" width="150" height="150"/></g></g></svg>