<?xml version="1.0" encoding="utf-8"?>
<!-- Generator: Adobe Illustrator 16.0.3, SVG Export Plug-In . SVG Version: 6.00 Build 0)  -->
<!DOCTYPE svg PUBLIC "-//W3C//DTD SVG 1.1//EN" "http://www.w3.org/Graphics/SVG/1.1/DTD/svg11.dtd">
<svg version="1.1" id="Capa_1" xmlns="http://www.w3.org/2000/svg" xmlns:xlink="http://www.w3.org/1999/xlink" x="0px" y="0px"
	 width="24px" height="24px" viewBox="0 0 24 24" enable-background="new 0 0 24 24" xml:space="preserve">
<path id="XMLID_1694_" fill="#FFFFFF" d="M10.272,18.857h2.762v-6.916h1.927l0.205-2.314h-2.132c0,0,0-0.864,0-1.319
	c0-0.545,0.109-0.761,0.638-0.761c0.424,0,1.494,0,1.494,0V5.144c0,0-1.576,0-1.912,0c-2.054,0-2.981,0.905-2.981,2.637
	c0,1.51,0,1.847,0,1.847H8.837v2.344h1.436V18.857z"/>
<path id="XMLID_1692_" fill="#7d9c2f" d="M11.993,23.354L11.993,23.354C5.723,23.354,0.64,18.271,0.64,12l0,0
	c0-6.271,5.083-11.353,11.353-11.353l0,0c6.27,0,11.354,5.082,11.354,11.353l0,0C23.347,18.271,18.263,23.354,11.993,23.354z"/>
<g id="XMLID_1684_">
	<path id="XMLID_1689_" fill="#FFFFFF" d="M11.993,6.896c1.662,0,1.859,0.007,2.516,0.036c0.606,0.027,0.937,0.129,1.155,0.215
		c0.291,0.112,0.498,0.248,0.716,0.465s0.353,0.425,0.466,0.715c0.086,0.219,0.186,0.549,0.214,1.157
		c0.03,0.656,0.037,0.852,0.037,2.515c0,1.662-0.007,1.859-0.037,2.516c-0.028,0.607-0.128,0.938-0.214,1.155
		c-0.113,0.29-0.248,0.499-0.466,0.717c-0.218,0.216-0.425,0.352-0.716,0.465c-0.219,0.085-0.549,0.187-1.155,0.214
		c-0.657,0.031-0.854,0.036-2.516,0.036c-1.662,0-1.859-0.005-2.515-0.036c-0.607-0.027-0.937-0.129-1.157-0.214
		c-0.29-0.113-0.497-0.249-0.715-0.465c-0.218-0.218-0.353-0.427-0.466-0.717c-0.085-0.218-0.186-0.548-0.215-1.155
		C6.896,13.859,6.889,13.662,6.889,12c0-1.663,0.007-1.859,0.036-2.515c0.029-0.607,0.13-0.938,0.215-1.157
		c0.113-0.291,0.248-0.498,0.466-0.715C7.824,7.396,8.031,7.26,8.321,7.148c0.22-0.086,0.55-0.188,1.157-0.215
		C10.133,6.903,10.331,6.896,11.993,6.896 M11.993,5.775c-1.691,0-1.903,0.006-2.567,0.038c-0.662,0.03-1.115,0.135-1.511,0.29
		c-0.41,0.158-0.757,0.372-1.103,0.717C6.466,7.166,6.253,7.513,6.095,7.923C5.94,8.318,5.835,8.771,5.806,9.434
		C5.775,10.098,5.768,10.309,5.768,12c0,1.69,0.007,1.902,0.038,2.567c0.03,0.662,0.135,1.114,0.289,1.51
		c0.159,0.409,0.372,0.757,0.717,1.103c0.346,0.347,0.693,0.559,1.103,0.719c0.396,0.152,0.849,0.26,1.511,0.289
		c0.664,0.03,0.876,0.038,2.567,0.038s1.903-0.008,2.566-0.038c0.663-0.029,1.116-0.137,1.512-0.289
		c0.409-0.16,0.757-0.372,1.104-0.719c0.346-0.346,0.559-0.693,0.717-1.103c0.154-0.396,0.26-0.848,0.289-1.51
		c0.03-0.665,0.038-0.877,0.038-2.567c0-1.691-0.008-1.902-0.038-2.566c-0.029-0.663-0.135-1.116-0.289-1.511
		c-0.158-0.41-0.371-0.757-0.717-1.104c-0.347-0.345-0.694-0.559-1.104-0.717c-0.396-0.154-0.849-0.26-1.512-0.29
		C13.896,5.782,13.684,5.775,11.993,5.775"/>
	<path id="XMLID_1686_" fill="#FFFFFF" d="M11.993,8.804c-1.765,0-3.197,1.431-3.197,3.196c0,1.765,1.432,3.197,3.197,3.197
		s3.197-1.433,3.197-3.197C15.189,10.234,13.758,8.804,11.993,8.804 M11.993,14.074c-1.146,0-2.075-0.928-2.075-2.074
		c0-1.146,0.929-2.075,2.075-2.075s2.076,0.929,2.076,2.075C14.068,13.146,13.139,14.074,11.993,14.074"/>
	<path id="XMLID_1685_" fill="#FFFFFF" d="M16.063,8.676c0,0.413-0.336,0.748-0.747,0.748c-0.412,0-0.748-0.335-0.748-0.748
		c0-0.411,0.336-0.747,0.748-0.747C15.728,7.93,16.063,8.265,16.063,8.676"/>
</g>
</svg>
