<svg xmlns="http://www.w3.org/2000/svg" viewBox="0 0 145 145"><defs><style>.cls-1{fill:#9cc33b;}</style></defs><g id="Capa_2" data-name="Capa 2"><g id="Capa_1-2" data-name="Capa 1"><path class="cls-1" d="M103.75,0H41.25A41.38,41.38,0,0,0,0,41.25v62.5A41.38,41.38,0,0,0,41.25,145h62.5A41.38,41.38,0,0,0,145,103.75V41.25A41.38,41.38,0,0,0,103.75,0ZM132.5,102.42a27.15,27.15,0,0,1-27.08,27H40a27.15,27.15,0,0,1-27.08-27.08V39.5A27.14,27.14,0,0,1,40,12.43h65.48A27.16,27.16,0,0,1,132.5,39.5Z"/><path class="cls-1" d="M75.09,35.3a37.28,37.28,0,1,0,34.77,39.64,39.4,39.4,0,0,0,0-4.86A37.28,37.28,0,0,0,75.09,35.3Zm0,60.07A23.22,23.22,0,1,1,95.8,69.89h0a22.28,22.28,0,0,1,0,4.76A23.22,23.22,0,0,1,75,95.35Z"/><circle class="cls-1" cx="111.48" cy="33.54" r="8.29"/></g></g></svg>