<?xml version="1.0" encoding="utf-8"?>
<!-- Generator: Adobe Illustrator 16.0.3, SVG Export Plug-In . SVG Version: 6.00 Build 0)  -->
<!DOCTYPE svg PUBLIC "-//W3C//DTD SVG 1.1//EN" "http://www.w3.org/Graphics/SVG/1.1/DTD/svg11.dtd">
<svg version="1.1" id="Capa_1" xmlns="http://www.w3.org/2000/svg" xmlns:xlink="http://www.w3.org/1999/xlink" x="0px" y="0px"
	 width="24px" height="24px" viewBox="0 0 24 24" enable-background="new 0 0 24 24" xml:space="preserve">
<path id="XMLID_1692_" fill="#7d9c2f" d="M12.046,23.264L12.046,23.264c-6.271,0-11.353-5.082-11.353-11.354l0,0
	c0-6.271,5.082-11.353,11.353-11.353l0,0c6.27,0,11.354,5.082,11.354,11.353l0,0C23.4,18.182,18.316,23.264,12.046,23.264z"/>
<g>
	<path id="user-c" fill="#fff" d="M12.046,10.816c-2.158,0-3.855-1.697-3.855-3.856c0-2.159,1.697-3.855,3.855-3.855
		c2.159,0,3.857,1.696,3.857,3.855C15.903,9.119,14.205,10.816,12.046,10.816z M12.046,9.274c1.313,0,2.314-1.003,2.314-2.314
		c0-1.311-1.001-2.313-2.314-2.313c-1.311,0-2.313,1.002-2.313,2.313C9.732,8.271,10.813,9.274,12.046,9.274z M6.648,18.525
		c0,0.463-0.385,0.771-0.771,0.771c-0.462,0-0.771-0.385-0.771-0.771c0.078-5.012,2.468-6.939,6.939-6.939
		c4.627,0,7.019,1.928,6.94,6.939c0,0.463-0.386,0.771-0.771,0.771c-0.463,0-0.771-0.385-0.771-0.771
		c0.077-4.24-1.618-5.396-5.398-5.396C8.499,13.129,6.803,14.285,6.648,18.525z"/>
</g>
</svg>
