<svg xmlns="http://www.w3.org/2000/svg" viewBox="0 0 150 150"><defs><style>.cls-1{fill:#7d9c2f;}</style></defs><g id="Capa_2" data-name="Capa 2"><g id="Capa_1-2" data-name="Capa 1"><path class="cls-1" d="M75,0a75,75,0,1,0,75,75A75.09,75.09,0,0,0,75,0Zm0,138.89A63.89,63.89,0,1,1,138.89,75,64,64,0,0,1,75,138.89Z"/><path class="cls-1" d="M75,19.84A55.16,55.16,0,1,0,130.16,75,55.23,55.23,0,0,0,75,19.84ZM75,124.6A49.6,49.6,0,1,1,124.6,75,49.66,49.66,0,0,1,75,124.6Z"/><path class="cls-1" d="M80.83,69.79V55.94a9.72,9.72,0,0,1,6.44,8.48,5.64,5.64,0,0,0,5.81,5.23,5.56,5.56,0,0,0,5.28-5.82A21,21,0,0,0,80.83,44.39v-6.6a5.56,5.56,0,1,0-11.11,0v6.53c-7.2,1.19-12.83,4.82-15.79,10.43s-2.76,12.37.41,17c3.37,4.91,8.25,7.59,15.38,8.47V94.06a9.67,9.67,0,0,1-6.43-8.43,5.65,5.65,0,0,0-5.82-5.28,5.56,5.56,0,0,0-5.28,5.82A21,21,0,0,0,69.72,105.6v6.45a5.56,5.56,0,1,0,11.11,0v-6.37c7.2-1.2,12.83-4.83,15.79-10.44s2.76-12.37-.41-17C92.85,73.35,88,70.66,80.83,69.79ZM63.51,65.46a5.88,5.88,0,0,1,.25-5.53c1.08-2,3.19-3.43,6-4.22V69C65.4,68.21,64.22,66.5,63.51,65.46Zm23.28,24.6c-1.08,2-3.19,3.44-6,4.23V81c4.33.8,5.5,2.51,6.22,3.55A5.9,5.9,0,0,1,86.79,90.06Z"/></g></g></svg>