<?xml version="1.0" encoding="utf-8"?>
<!-- Generator: Adobe Illustrator 16.0.3, SVG Export Plug-In . SVG Version: 6.00 Build 0)  -->
<!DOCTYPE svg PUBLIC "-//W3C//DTD SVG 1.1//EN" "http://www.w3.org/Graphics/SVG/1.1/DTD/svg11.dtd">
<svg version="1.1" id="Capa_1" xmlns="http://www.w3.org/2000/svg" xmlns:xlink="http://www.w3.org/1999/xlink" x="0px" y="0px"
	 width="300px" height="150px" viewBox="0 0 300 150" enable-background="new 0 0 300 150" xml:space="preserve">
<path fill="#253B80" d="M116.324,52.258h-15.877c-1.087,0-2.011,0.789-2.18,1.861l-6.422,40.714
	c-0.128,0.803,0.494,1.528,1.309,1.528h7.58c1.086,0,2.01-0.79,2.18-1.864l1.732-10.982c0.167-1.074,1.093-1.863,2.178-1.863h5.026
	c10.459,0,16.495-5.061,18.071-15.09c0.711-4.388,0.031-7.835-2.024-10.25C125.64,53.661,121.638,52.258,116.324,52.258z
	 M118.156,67.127c-0.869,5.698-5.222,5.698-9.431,5.698h-2.395l1.679-10.64c0.1-0.643,0.658-1.116,1.308-1.116h1.098
	c2.867,0,5.572,0,6.969,1.635C118.218,63.678,118.474,65.127,118.156,67.127z"/>
<path fill="#253B80" d="M163.785,66.945h-7.604c-0.648,0-1.206,0.473-1.307,1.117l-0.337,2.126l-0.532-0.771
	c-1.646-2.39-5.316-3.188-8.979-3.188c-8.402,0-15.579,6.363-16.976,15.292c-0.726,4.452,0.306,8.71,2.832,11.678
	c2.317,2.732,5.633,3.868,9.576,3.868c6.77,0,10.525-4.354,10.525-4.354l-0.339,2.113c-0.128,0.81,0.495,1.533,1.304,1.533h6.849
	c1.088,0,2.01-0.792,2.181-1.866l4.108-26.022C165.218,67.672,164.597,66.945,163.785,66.945z M153.186,81.743
	c-0.733,4.344-4.18,7.26-8.578,7.26c-2.208,0-3.972-0.708-5.105-2.05c-1.124-1.333-1.551-3.23-1.192-5.342
	c0.685-4.308,4.19-7.318,8.52-7.318c2.161,0,3.916,0.717,5.071,2.07C153.059,77.73,153.519,79.639,153.186,81.743z"/>
<path fill="#253B80" d="M204.276,66.945h-7.64c-0.728,0-1.415,0.362-1.827,0.968l-10.538,15.52l-4.467-14.915
	c-0.281-0.933-1.143-1.573-2.118-1.573h-7.507c-0.913,0-1.545,0.891-1.255,1.75l8.415,24.696l-7.912,11.169
	c-0.624,0.882,0.005,2.09,1.079,2.09h7.631c0.724,0,1.403-0.354,1.814-0.947l25.413-36.68
	C205.973,68.145,205.347,66.945,204.276,66.945z"/>
<path fill="#2298C4" d="M229.573,52.258h-15.878c-1.084,0-2.01,0.789-2.18,1.861l-6.421,40.714
	c-0.128,0.803,0.495,1.528,1.304,1.528h8.149c0.757,0,1.405-0.554,1.523-1.306l1.821-11.541c0.169-1.074,1.094-1.863,2.178-1.863
	h5.023c10.461,0,16.497-5.061,18.074-15.09c0.713-4.388,0.027-7.835-2.026-10.25C238.888,53.661,234.889,52.258,229.573,52.258z
	 M231.406,67.127c-0.866,5.698-5.219,5.698-9.432,5.698h-2.395l1.685-10.64c0.1-0.643,0.65-1.116,1.304-1.116h1.1
	c2.864,0,5.57,0,6.97,1.635C231.469,63.678,231.724,65.127,231.406,67.127z"/>
<path fill="#2298C4" d="M277.03,66.945h-7.596c-0.652,0-1.211,0.473-1.306,1.117l-0.335,2.126l-0.535-0.771
	c-1.646-2.39-5.314-3.188-8.979-3.188c-8.401,0-15.574,6.363-16.974,15.292c-0.724,4.452,0.304,8.71,2.831,11.678
	c2.323,2.732,5.633,3.868,9.577,3.868c6.769,0,10.523-4.354,10.523-4.354l-0.34,2.113c-0.127,0.81,0.494,1.533,1.31,1.533h6.848
	c1.083,0,2.004-0.792,2.177-1.866l4.111-26.022C278.467,67.672,277.846,66.945,277.03,66.945z M266.434,81.743
	c-0.731,4.344-4.182,7.26-8.579,7.26c-2.203,0-3.972-0.708-5.104-2.05c-1.123-1.333-1.547-3.23-1.193-5.342
	c0.689-4.308,4.189-7.318,8.519-7.318c2.159,0,3.914,0.717,5.07,2.07C266.311,77.73,266.769,79.639,266.434,81.743z"/>
<path fill="#2298C4" d="M285.994,53.375l-6.516,41.459c-0.127,0.803,0.494,1.528,1.306,1.528h6.552c1.089,0,2.01-0.79,2.177-1.864
	l6.432-40.711c0.127-0.804-0.494-1.53-1.307-1.53H287.3C286.652,52.258,286.094,52.732,285.994,53.375z"/>
<path fill="#253B80" d="M25.909,104.274l1.214-7.713l-2.705-0.063H11.503l8.975-56.909c0.028-0.172,0.119-0.332,0.252-0.446
	c0.131-0.114,0.301-0.177,0.478-0.177h21.776c7.229,0,12.218,1.505,14.823,4.474c1.222,1.393,2,2.849,2.375,4.451
	c0.396,1.68,0.403,3.688,0.017,6.138l-0.028,0.178v1.57l1.221,0.691c1.029,0.545,1.847,1.17,2.474,1.885
	c1.044,1.192,1.719,2.705,2.005,4.5c0.295,1.846,0.197,4.042-0.286,6.528c-0.557,2.86-1.458,5.352-2.674,7.391
	c-1.119,1.877-2.544,3.435-4.237,4.643c-1.615,1.146-3.536,2.016-5.706,2.574c-2.103,0.546-4.501,0.822-7.131,0.822h-1.695
	c-1.212,0-2.39,0.438-3.313,1.221c-0.926,0.797-1.54,1.891-1.727,3.082l-0.127,0.694l-2.145,13.595l-0.099,0.498
	c-0.025,0.158-0.069,0.236-0.134,0.29c-0.058,0.051-0.142,0.082-0.223,0.082H25.909z"/>
<path fill="#2298C4" d="M62.548,54.389L62.548,54.389L62.548,54.389c-0.065,0.417-0.14,0.84-0.223,1.276
	c-2.872,14.745-12.697,19.839-25.245,19.839h-6.389c-1.535,0-2.828,1.114-3.067,2.629l0,0l0,0l-3.271,20.745l-0.928,5.881
	c-0.155,0.993,0.612,1.889,1.615,1.889h11.332c1.342,0,2.481-0.975,2.693-2.297l0.111-0.575l2.133-13.54l0.137-0.744
	c0.209-1.328,1.352-2.304,2.694-2.304h1.695c10.979,0,19.572-4.457,22.084-17.356c1.05-5.388,0.507-9.887-2.271-13.052
	C64.81,55.827,63.768,55.034,62.548,54.389z"/>
<path fill="#222D65" d="M59.544,53.191c-0.438-0.127-0.891-0.244-1.356-0.348c-0.467-0.102-0.944-0.193-1.437-0.272
	c-1.722-0.278-3.609-0.41-5.632-0.41H34.05c-0.42,0-0.819,0.095-1.176,0.267c-0.788,0.378-1.373,1.124-1.515,2.037l-3.631,22.999
	l-0.104,0.671c0.239-1.515,1.532-2.629,3.067-2.629h6.389c12.547,0,22.373-5.097,25.245-19.839c0.085-0.436,0.158-0.86,0.223-1.276
	c-0.727-0.385-1.514-0.715-2.36-0.996C59.978,53.324,59.763,53.257,59.544,53.191z"/>
<path fill="#253B80" d="M31.359,54.464c0.142-0.913,0.727-1.658,1.515-2.034c0.359-0.172,0.756-0.268,1.176-0.268h17.069
	c2.022,0,3.91,0.132,5.632,0.411c0.493,0.079,0.97,0.17,1.437,0.272c0.465,0.104,0.917,0.221,1.356,0.348
	c0.219,0.066,0.434,0.133,0.646,0.2c0.846,0.281,1.633,0.613,2.36,0.996c0.854-5.449-0.007-9.158-2.953-12.518
	c-3.248-3.698-9.11-5.282-16.611-5.282H21.211c-1.533,0-2.84,1.114-3.077,2.63L9.063,96.716c-0.178,1.138,0.7,2.163,1.847,2.163
	h13.444l3.375-21.416L31.359,54.464z"/>
</svg>
