<svg xmlns="http://www.w3.org/2000/svg" viewBox="0 0 149.35 150"><defs><style>.cls-1{fill:#9cc33b;}</style></defs><g id="Capa_2" data-name="Capa 2"><g id="Capa_1-2" data-name="Capa 1"><path class="cls-1" d="M115.63,150h-2c-11.39-.73-21.39-4.84-29.67-8.77A160.24,160.24,0,0,1,30.49,99.3C18.25,84.54,10,70.73,4.43,55.83c-2.22-6-5.08-15.07-4.3-24.7a22.92,22.92,0,0,1,6.92-14.8L18.75,4.52c6.27-6,14.42-6,20.6.07,2.07,1.92,4.26,4.13,6.23,6.15,1,1.11,2,2.13,3.06,3.14l9.68,9.69A14.83,14.83,0,0,1,63.13,34a14.79,14.79,0,0,1-4.79,10.45l-3.71,3.75c-2.38,2.41-4.72,4.78-7.15,7l-1.11,1,.63,1.4a73.6,73.6,0,0,0,9.66,15.23A120.55,120.55,0,0,0,85.59,99.3,36.31,36.31,0,0,0,89,101.11l4.09,2.21,12-12c3.09-3.11,6.63-4.8,10.44-4.69a14.08,14.08,0,0,1,10,4.69l19,19a14.64,14.64,0,0,1,4.68,10.34,15.19,15.19,0,0,1-4.63,10.49c-1.46,1.52-3,3-4.42,4.42l-.44.43a74.12,74.12,0,0,0-5.64,5.85l-.56.59c-.1.13-.21.24-.31.35A24,24,0,0,1,115.63,150ZM29.1,8.07a7.12,7.12,0,0,0-4.67,2.21L12.81,22.05a15,15,0,0,0-4.58,9.77c-.65,8,1.88,15.91,3.83,21.19,5.17,14,13,27.08,24.69,41.11a152.73,152.73,0,0,0,50.74,39.77c7.56,3.58,16.67,7.33,26.62,8h1.52a15.68,15.68,0,0,0,11.69-4.53l.26-.3.59-.59a80.49,80.49,0,0,1,6-6.24l.47-.46q2.15-2,4.21-4.17a7.51,7.51,0,0,0,2.38-4.88,6.88,6.88,0,0,0-2.29-4.6L119.85,97a6.36,6.36,0,0,0-4.32-2.21h0a6.92,6.92,0,0,0-4.59,2.31L96.77,111.13a4,4,0,0,1-4.79.7l-6.59-3.47c-1.27-.63-2.74-1.38-4.11-2.21A129.29,129.29,0,0,1,50.29,78,81.76,81.76,0,0,1,39.58,61l-1.85-4.09a4.06,4.06,0,0,1,1-4.66l3.31-3c2.33-2.13,4.57-4.42,6.75-6.63l3.82-3.85A7,7,0,0,0,55,34a6.93,6.93,0,0,0-2.44-4.73l-9.69-9.68c-1.1-1.1-2.21-2.21-3.2-3.31-1.8-1.83-3.87-3.94-5.89-5.87C31.59,8.31,30.06,8.07,29.1,8.07Z"/></g></g></svg>