<?xml version="1.0" encoding="utf-8"?>
<!-- Generator: Adobe Illustrator 21.0.0, SVG Export Plug-In . SVG Version: 6.00 Build 0)  -->
<svg version="1.1" id="Capa_1" xmlns="http://www.w3.org/2000/svg" xmlns:xlink="http://www.w3.org/1999/xlink" x="0px" y="0px"
	 viewBox="0 0 24 24" style="enable-background:new 0 0 24 24;" xml:space="preserve">
<style type="text/css">
	.st0{fill:#EF4F25;}
</style>
<path id="mobile-c_1_" class="st0" d="M13,3.5h-2c-0.3,0-0.5,0.2-0.5,0.5s0.2,0.5,0.5,0.5h2c0.3,0,0.5-0.2,0.5-0.5S13.3,3.5,13,3.5z
	 M13,3.5h-2c-0.3,0-0.5,0.2-0.5,0.5s0.2,0.5,0.5,0.5h2c0.3,0,0.5-0.2,0.5-0.5S13.3,3.5,13,3.5z M17,0H7C5.9,0,5,1,5,2.2v19.6
	C5,23,5.9,24,7,24h10c1.1,0,2-1,2-2.2V2.2C19,1,18.1,0,17,0z M7,2h10v20H7V2z M11,4.5h2c0.3,0,0.5-0.2,0.5-0.5S13.3,3.5,13,3.5h-2
	c-0.3,0-0.5,0.2-0.5,0.5S10.7,4.5,11,4.5z"/>
<path class="st0" d="M6.2,17.9v4.4h12.1v-4.4H6.2z M12,19c0.5,0,1,0.5,1,1s-0.5,1-1,1s-1-0.5-1-1S11.5,19,12,19z"/>
</svg>
