<svg xmlns="http://www.w3.org/2000/svg" viewBox="0 0 150 150"><defs><style>.cls-1{fill:#9cc33b;}.cls-2{fill:none;}</style></defs><g id="Capa_2" data-name="Capa 2"><g id="Capa_1-2" data-name="Capa 1"><path class="cls-1" d="M145.21,28.68a56.83,56.83,0,0,1-10,3.37A31.17,31.17,0,0,0,143.45,19a1.63,1.63,0,0,0-1-2.08,1.65,1.65,0,0,0-1.45.18,58,58,0,0,1-15.28,6.3,3.44,3.44,0,0,1-1,.13,4.1,4.1,0,0,1-2.68-1,31.3,31.3,0,0,0-20.72-7.81,33.16,33.16,0,0,0-9.83,1.55A30.29,30.29,0,0,0,71.12,38a33.28,33.28,0,0,0-.73,11.51,1.14,1.14,0,0,1-1,1.25h-.24a82,82,0,0,1-56.34-30.1,1.64,1.64,0,0,0-2.3-.24,1.82,1.82,0,0,0-.38.45,31.34,31.34,0,0,0,5.08,38,28.07,28.07,0,0,1-7.12-2.77,1.65,1.65,0,0,0-2.24.6,1.68,1.68,0,0,0-.22.82A31.34,31.34,0,0,0,23.88,86.36h-.67A28.59,28.59,0,0,1,18,85.85a1.64,1.64,0,0,0-2,1.23s0,0,0,.08a1.94,1.94,0,0,0,0,.76,31.34,31.34,0,0,0,24.76,21.37,57.82,57.82,0,0,1-32.33,9.82H4.91A2.4,2.4,0,0,0,2.57,121a2.46,2.46,0,0,0,1.19,2.73,85.88,85.88,0,0,0,43.13,11.64,86.85,86.85,0,0,0,36.84-7.82,81.53,81.53,0,0,0,26.93-20.2,88.36,88.36,0,0,0,16.5-27.66,87.38,87.38,0,0,0,5.62-30.26v-.48a5.31,5.31,0,0,1,2-4.14,62.27,62.27,0,0,0,12.43-13.69,1.64,1.64,0,0,0-2.08-2.4Z"/><rect class="cls-2" width="150" height="150"/></g></g></svg>