<?xml version="1.0" encoding="utf-8"?>
<!-- Generator: Adobe Illustrator 21.0.0, SVG Export Plug-In . SVG Version: 6.00 Build 0)  -->
<svg version="1.1" id="Capa_1" xmlns="http://www.w3.org/2000/svg" xmlns:xlink="http://www.w3.org/1999/xlink" x="0px" y="0px"
	 viewBox="0 0 24 24" style="enable-background:new 0 0 24 24;" xml:space="preserve">
<style type="text/css">
	.st0{fill:#EF4F25;}
</style>
<g>
	<path id="marker-a" class="st0" d="M12,10c-0.6,0-1-0.4-1-1s0.4-1,1-1s1,0.4,1,1S12.6,10,12,10z M18.2,12.9c0.4,0-0.1,1.2-1.5,3.6
		c-1.4,2.4-2.9,4.4-4.7,5.8c-1.5-1.2-3.1-3.1-4.8-5.6c1,1.3,3.6,2,5.8-1.7C14.4,12.6,16.1,11.9,18.2,12.9z"/>
</g>
<g>
	<path id="marker-c_1_" class="st0" d="M12,23c-2.8,0-8-9.5-8-13.8C4,4.7,7.6,1,12,1s8,3.7,8,8.2C20,13.5,14.8,23,12,23z M12,21
		c0.4,0,2-1.9,3.4-4.4C17,13.8,18,10.8,18,9.2C18,5.8,15.3,3,12,3S6,5.8,6,9.2c0,1.6,1.1,4.6,2.6,7.4C10,19.1,11.6,21,12,21z M12,13
		c-2.2,0-4-1.8-4-4s1.8-4,4-4s4,1.8,4,4S14.2,13,12,13z M12,11c1.1,0,2-0.9,2-2s-0.9-2-2-2s-2,0.9-2,2S10.9,11,12,11z"/>
</g>
</svg>
