<?xml version="1.0" encoding="utf-8"?>
<!-- Generator: Adobe Illustrator 16.0.3, SVG Export Plug-In . SVG Version: 6.00 Build 0)  -->
<!DOCTYPE svg PUBLIC "-//W3C//DTD SVG 1.1//EN" "http://www.w3.org/Graphics/SVG/1.1/DTD/svg11.dtd">
<svg version="1.1" id="Capa_1" xmlns="http://www.w3.org/2000/svg" xmlns:xlink="http://www.w3.org/1999/xlink" x="0px" y="0px"
	 width="24px" height="24px" viewBox="0 0 24 24" enable-background="new 0 0 24 24" xml:space="preserve">
<g>
	<path id="heart-c_1_" fill="red" d="M19.921,12.047c1.773-1.842,1.772-4.825-0.003-6.666c-1.776-1.84-4.654-1.842-6.432-0.003
		l-1.266,1.312l-1.224-1.269C9.224,3.584,6.351,3.585,4.579,5.422c-1.772,1.837-1.771,4.815,0.001,6.651L12.225,20L19.921,12.047z
		 M10.786,21.389L3.14,13.463c-2.52-2.612-2.521-6.818-0.001-9.43c2.487-2.578,6.506-2.65,9.08-0.216
		c2.576-2.48,6.633-2.421,9.138,0.175c2.522,2.615,2.524,6.824,0.005,9.441l-7.668,7.949c-0.289,0.299-0.646,0.488-1.023,0.567
		C12.011,22.1,11.291,21.912,10.786,21.389z"/>
</g>
</svg>
