<?xml version="1.0" encoding="utf-8"?>
<!-- Generator: Adobe Illustrator 21.0.0, SVG Export Plug-In . SVG Version: 6.00 Build 0)  -->
<svg version="1.1" id="Capa_1" xmlns="http://www.w3.org/2000/svg" xmlns:xlink="http://www.w3.org/1999/xlink" x="0px" y="0px"
	 viewBox="0 0 1200 356" style="enable-background:new 0 0 1200 356;" xml:space="preserve">
<style type="text/css">
	.st0{fill:#6C1CD3;}
	.st1{fill:#FFFFFF;}
</style>
<path class="st0" d="M1148.8,347.7H49.5c-21.4,0-38.7-17.3-38.7-38.7V45.1c0-21.4,17.3-38.7,38.7-38.7h1099.3
	c21.4,0,38.7,17.3,38.7,38.7V309C1187.5,330.4,1170.1,347.7,1148.8,347.7z"/>
<g transform="translate(0,633) scale(0.1,-0.1)">
	<path id="path6" class="st1" d="M3819.7,5309.2l-460.4,4.2l0-305.4h763l-792.9-1016.4v-258.5h490.3v-297.7h294.2v297.7H4614
		c4.2,11.9,5.7,44-20.9,73.4c-44.1,49-79.2,100.3-111.5,164.7c-14.7,28.7-25.9,63.1-30.1,65.9c-98.5,4.5-665.1,3.3-664.8,6.9
		l793.6,1022.6v242.4h-466.5v301.2h-294.2V5309.2z"/>
	<path id="path8" class="st1" d="M5944.3,5451.4c-7-2.8-9.1-157.6-9.1-743.9c0-792.2-0.7-778.9,34.3-846.9
		c31.5-60.9,108.6-115.6,194.7-138c47.6-12.6,187.7-14,241.7-2.8c69.3,14.7,82.7,35.7,55.3,89.7c-17.5,33.6-40.6,107.2-46.2,147.8
		c-7.7,48.3-17.5,56-76.4,54.6c-28-0.7-54.6,1.4-59.5,4.2c-28.7,18.2-28.7,23.1-28.7,732.7c0,456-2.1,685.1-7,694.2
		c-7,12.6-16.1,13.3-149.2,12.6C6016.4,5455.6,5948.5,5453.5,5944.3,5451.4z"/>
	<path id="path10" class="st1" d="M6586.6,5449.3c-9.1-5.6-10.5-95.3-10.5-736.9c0-691.4,0.7-733.4,13.3-781.7
		c23.8-95.3,77.8-153.4,180-196.1c39.2-16.1,56.7-18.9,135.9-21c105.8-2.8,159.7,4.9,213.6,32.2c53.2,25.9,54.6,44.1,9.1,110.7
		c-18.2,26.6-46.2,72.1-61.6,100.9l-28,52.5l-51.1,0.7c-63.7,1.4-70,4.2-82,34.3c-9.1,20.3-10.5,124.7-10.5,704
		c0,456-2.1,685.1-7,694.2c-7,12.6-16.1,13.3-149.2,13.3C6660.8,5456.3,6592.2,5452.8,6586.6,5449.3z"/>
	<path id="path12" class="st1" d="M8449.9,5298.7c-56.7-25.9-86.2-70.7-86.9-133.1c-0.7-53.2,21-93.9,65.1-122.6
		c54.6-37.1,142.2-26.6,187.7,22.4c58.1,62.3,46.2,170.2-25.2,218.6C8553.6,5309.2,8488.4,5315.5,8449.9,5298.7z M8562,5272.8
		c79.2-39.9,91.1-142.2,23.8-201.7c-28.7-25.2-49-30.8-93.2-26.6c-121.9,11.9-145.7,182.8-32.2,234
		C8491.2,5292.4,8526.9,5290.3,8562,5272.8z"/>
	<path id="path14" class="st1" d="M8454.8,5241.2c-4.9-8.4-5.6-138.7-0.7-152c2.1-6.3,8.4-11.2,14-11.2c7,0,9.8,9.8,9.8,35
		c0,31.5,1.4,35,16.1,35c11.2,0,21-9.8,36.4-35c12.6-21,25.2-35,32.9-35c16.8,0,16.1,2.8-9.8,40.6c-15.4,22.4-19.6,32.9-13.3,35
		c18.2,6.3,35.7,29.4,35.7,46.9c0,31.5-22.4,45.5-72.8,45.5C8477.9,5246.1,8456.2,5244,8454.8,5241.2z M8539.5,5218.8
		c5.6-2.8,8.4-13.3,7-22.4c-2.1-14.7-6.3-16.8-35-18.9l-33.6-2.1v24.5c0,24.5,0.7,25.2,26.6,25.2
		C8518.5,5225.1,8534.6,5222.3,8539.5,5218.8z"/>
	<path id="path16" class="st1" d="M5063,5011.5c-3.5-1.4-30.8-7.7-59.5-14c-180-41.3-339-179.3-406.3-354.4
		c-37.1-96.7-50.4-171.6-51.1-283c-0.7-156.2,30.8-271.1,103-380.4c81.3-122.6,200.3-205.9,354.4-248c52.5-14,75.7-16.1,196.1-16.1
		c119.1,0,143.6,2.1,193.3,15.4c123.3,34.3,228.4,91.1,313.1,171.6c53.9,50.4,53.2,64.4-1.4,106.5c-22.4,17.5-63,55.3-89.7,84.8
		c-33.6,35.7-53.9,52.5-64.4,52.5c-9.8,0-32.2-14-53.9-35c-75-67.9-169.5-100.2-293.5-99.5c-113.5,0.7-196.1,30.1-248.7,90.4
		c-26.6,30.1-60.2,98.8-67.2,137.3l-4.2,25.9h436.4c240.3,0,441.3,2.8,446.2,6.3c23.1,14.7,28.7,116.3,11.9,227
		c-39.9,264.8-198.2,442.7-446.9,502.2c-44.1,10.5-80.6,14-159,13.3C5115.6,5014.3,5067.2,5012.9,5063,5011.5z M5250.1,4741.1
		c51.1-10.5,114.2-45.5,143.6-79.2c27.3-30.8,55.3-86.2,62.3-121.9l4.9-22.4h-285.8H4890l4.9,22.4c21,94.6,102.3,173.7,203.1,198.9
		C5142.9,4750.2,5203.1,4750.9,5250.1,4741.1z"/>
	<path id="path18" class="st1" d="M7609.3,5005.2c-248.7-55.3-416.8-230.5-469.3-488.9c-31.5-152.7-14-330.6,45.5-458.1
		c81.3-176.5,229.1-290.7,430.8-332c63.7-13.3,89-14.7,189.1-11.9c84.8,2.8,130.3,7.7,169.5,18.2c119.8,31.5,224.9,89,305.4,166
		c61.6,59.5,61.6,62.3-4.9,117.7c-30.8,25.2-72.2,65.1-91.8,88.3c-45.5,52.5-57.4,53.2-108.6,7c-76.4-69.3-167.4-100.2-294.2-99.5
		c-177.9,0.7-281.6,77.1-315.2,231.2l-4.9,18.2h887.5c30.1,21.7,18.9,251.5-17.5,358c-7,21-25.9,63-41.3,92.5
		c-82,156.9-212.9,254.3-395.1,292.8C7836.3,5017.1,7664.6,5017.1,7609.3,5005.2z M7827.9,4741.1c47.6-10.5,96.7-35,131.7-66.5
		c29.4-27.3,77.1-113.5,77.1-140.1v-16.8h-568.8l4.9,19.6C7509.1,4687.2,7663.2,4776.1,7827.9,4741.1z"/>
</g>
</svg>
