<?xml version="1.0" encoding="utf-8"?>
<!-- Generator: Adobe Illustrator 21.0.0, SVG Export Plug-In . SVG Version: 6.00 Build 0)  -->
<svg version="1.1" id="Capa_1" xmlns="http://www.w3.org/2000/svg" xmlns:xlink="http://www.w3.org/1999/xlink" x="0px" y="0px"
	 viewBox="0 0 24 24" style="enable-background:new 0 0 24 24;" xml:space="preserve">
<style type="text/css">
	.st0{fill:#F7FF08;}
	.st1{fill:#147EB8;}
</style>
<circle class="st0" cx="12.2" cy="11.9" r="11.7"/>
<g>
	<ellipse class="st1" cx="12.2" cy="8.5" rx="7.5" ry="3.5"/>
	<path class="st1" d="M19.7,10.2c-0.9,1.5-3.9,2.6-7.5,2.6c-3.6,0-6.7-1.1-7.5-2.6v0.5h0c0,0,0,0,0,0c0,1.9,3.4,3.5,7.5,3.5
		s7.5-1.6,7.5-3.5c0,0,0,0,0,0h0V10.2z"/>
	<path class="st1" d="M12.2,15.1c-3.6,0-6.7-1.1-7.5-2.6v0.5h0c0,0,0,0,0,0c0,1.9,3.4,3.5,7.5,3.5s7.5-1.6,7.5-3.5c0,0,0,0,0,0h0
		v-0.5C18.9,14,15.8,15.1,12.2,15.1z"/>
	<path class="st1" d="M12.2,17.4c-3.6,0-6.7-1.1-7.5-2.6v0.5h0c0,0,0,0,0,0c0,1.9,3.4,3.5,7.5,3.5s7.5-1.6,7.5-3.5c0,0,0,0,0,0h0
		v-0.5C18.9,16.3,15.8,17.4,12.2,17.4z"/>
</g>
</svg>
