<?xml version="1.0" encoding="utf-8"?>
<!-- Generator: Adobe Illustrator 21.0.0, SVG Export Plug-In . SVG Version: 6.00 Build 0)  -->
<svg version="1.1" id="Capa_1" xmlns="http://www.w3.org/2000/svg" xmlns:xlink="http://www.w3.org/1999/xlink" x="0px" y="0px"
	 viewBox="0 0 24 24" style="enable-background:new 0 0 24 24;" xml:space="preserve">
<style type="text/css">
	.st0{fill:#FEE261;}
</style>
<g>
	<path class="st0" d="M12.2,1c0.4,0.1,0.8,0.1,1.3,0.2c2.4,0.6,4.1,2,5,4.2c1.1,2.5,0.8,5-0.8,7.3c-0.6,0.9-1.4,1.6-2.4,2.1
		c-0.1,0.1-0.2,0.1-0.1,0.3c0.5,2.4,1,4.8,1.5,7.2c0,0.1,0,0.1,0,0.2c-0.1-0.1-0.2-0.1-0.2-0.1c-1.4-1-2.9-2-4.3-3.1
		c-0.1-0.1-0.2-0.1-0.4,0c-1.4,1-2.9,2-4.3,3c-0.1,0-0.1,0.1-0.2,0.2c0.6-2.5,1.1-5,1.7-7.4c-0.4-0.2-0.8-0.5-1.2-0.7
		c-1.8-1.3-2.9-3-3.2-5.2C4.2,6.9,5,4.9,6.6,3.2C7.7,2,9.1,1.3,10.7,1.1c0.2,0,0.4-0.1,0.6-0.1C11.7,1,11.9,1,12.2,1z M11.8,13.6
		c2.9,0,5.3-2.4,5.3-5.3c0-2.9-2.4-5.3-5.3-5.3C8.9,3,6.5,5.4,6.5,8.3C6.5,11.3,8.9,13.6,11.8,13.6z"/>
	<path class="st0" d="M10.1,8.9C9.3,8.2,8.4,7.6,7.6,7c0,0,0,0,0,0c0.1,0,0.1,0,0.2,0c0.9,0,1.9,0,2.8,0c0.1,0,0.2,0,0.2-0.2
		c0.3-0.9,0.6-1.8,0.9-2.7c0-0.1,0-0.1,0.1-0.2c0,0.1,0.1,0.2,0.1,0.2c0.3,0.9,0.6,1.8,0.9,2.7c0,0.1,0.1,0.2,0.2,0.2
		c0.9,0,1.9,0,2.8,0c0.1,0,0.1,0,0.2,0c0,0,0,0,0,0c-0.9,0.6-1.7,1.2-2.6,1.9c0.3,1,0.7,2,1,3.1c-0.1-0.1-0.2-0.1-0.2-0.2
		c-0.8-0.6-1.5-1.1-2.3-1.7c-0.1-0.1-0.2-0.1-0.3,0c-0.8,0.6-1.5,1.1-2.3,1.7c-0.1,0-0.1,0.1-0.2,0.2C9.5,10.9,9.8,9.9,10.1,8.9z"/>
</g>
</svg>
